<?xml version="1.0" encoding="utf-8"?>
<svg viewBox="0 0 500 500" xmlns="http://www.w3.org/2000/svg">
  <g transform="matrix(1, 0, 0, 1, 105.809441, 105.001877)"/>
  <g transform="matrix(1, 0, 0, 1, 105.809441, 105.001877)"/>
  <g transform="matrix(1, 0, 0, 1, 105.809441, 105.001877)"/>
  <g transform="matrix(1, 0, 0, 1, 105.809441, 105.001877)"/>
  <g transform="matrix(1, 0, 0, 1, 105.809441, 105.001877)"/>
  <g transform="matrix(1, 0, 0, 1, 105.809441, 105.001877)"/>
  <g transform="matrix(1, 0, 0, 1, 105.809441, 105.001877)"/>
  <g transform="matrix(1, 0, 0, 1, 105.809441, 105.001877)"/>
  <g transform="matrix(1, 0, 0, 1, 105.809441, 105.001877)"/>
  <g transform="matrix(1, 0, 0, 1, 105.809441, 105.001877)"/>
  <g transform="matrix(1, 0, 0, 1, 105.809441, 105.001877)"/>
  <g transform="matrix(1, 0, 0, 1, 105.809441, 105.001877)"/>
  <g transform="matrix(1, 0, 0, 1, 105.809441, 105.001877)"/>
  <g transform="matrix(1, 0, 0, 1, 105.809441, 105.001877)"/>
  <g transform="matrix(1, 0, 0, 1, 105.809441, 105.001877)"/>
  <path fill-rule="evenodd" d="M 446.441 449.324 L 247.374 499.111 L 48.306 449.324 L 5.648 26.13 L 489.099 26.13 C 474.88 167.177 460.662 308.275 446.441 449.324 Z M 458.059 51.024 L 36.702 51.024 L 74.924 430.08 L 247.374 473.246 L 419.837 430.08 L 458.059 51.024 Z M 130.791 299.962 L 187.667 299.962 L 189.061 331.078 L 247.374 348.491 L 305.701 331.078 L 309.924 275.068 L 184.838 275.068 L 181.952 225.279 L 312.81 225.279 L 317.033 175.492 L 120.851 175.492 L 116.572 125.705 L 376.797 125.705 L 369.686 225.279 L 359.69 368.419 L 247.374 400.806 L 135.072 368.419 L 130.791 299.962 Z" style="fill: rgb(140, 140, 140);"/>
</svg>