<?xml version="1.0" encoding="utf-8"?>
<svg viewBox="0 0 500 500" xmlns="http://www.w3.org/2000/svg">
  <g transform="matrix(1, 0, 0, 1, 105.809441, 105.001877)"/>
  <g transform="matrix(1, 0, 0, 1, 105.809441, 105.001877)"/>
  <g transform="matrix(1, 0, 0, 1, 105.809441, 105.001877)"/>
  <g transform="matrix(1, 0, 0, 1, 105.809441, 105.001877)"/>
  <g transform="matrix(1, 0, 0, 1, 105.809441, 105.001877)"/>
  <g transform="matrix(1, 0, 0, 1, 105.809441, 105.001877)"/>
  <g transform="matrix(1, 0, 0, 1, 105.809441, 105.001877)"/>
  <g transform="matrix(1, 0, 0, 1, 105.809441, 105.001877)"/>
  <g transform="matrix(1, 0, 0, 1, 105.809441, 105.001877)"/>
  <g transform="matrix(1, 0, 0, 1, 105.809441, 105.001877)"/>
  <g transform="matrix(1, 0, 0, 1, 105.809441, 105.001877)"/>
  <g transform="matrix(1, 0, 0, 1, 105.809441, 105.001877)"/>
  <g transform="matrix(1, 0, 0, 1, 105.809441, 105.001877)"/>
  <g transform="matrix(1, 0, 0, 1, 105.809441, 105.001877)"/>
  <g transform="matrix(1, 0, 0, 1, 105.809441, 105.001877)"/>
  <g transform="matrix(1, 0, 0, 1, 113.037758, 143.46225)"/>
  <g transform="matrix(1, 0, 0, 1, 113.037758, 143.46225)"/>
  <g transform="matrix(1, 0, 0, 1, 113.037758, 143.46225)"/>
  <g transform="matrix(1, 0, 0, 1, 113.037758, 143.46225)"/>
  <g transform="matrix(1, 0, 0, 1, 113.037758, 143.46225)"/>
  <g transform="matrix(1, 0, 0, 1, 113.037758, 143.46225)"/>
  <g transform="matrix(1, 0, 0, 1, 113.037758, 143.46225)"/>
  <g transform="matrix(1, 0, 0, 1, 113.037758, 143.46225)"/>
  <g transform="matrix(1, 0, 0, 1, 113.037758, 143.46225)"/>
  <g transform="matrix(1, 0, 0, 1, 113.037758, 143.46225)"/>
  <g transform="matrix(1, 0, 0, 1, 113.037758, 143.46225)"/>
  <g transform="matrix(1, 0, 0, 1, 113.037758, 143.46225)"/>
  <g transform="matrix(1, 0, 0, 1, 113.037758, 143.46225)"/>
  <g transform="matrix(1, 0, 0, 1, 113.037758, 143.46225)"/>
  <g transform="matrix(1, 0, 0, 1, 113.037758, 143.46225)"/>
  <path d="M 14.482 31.664 L 56.854 445.38 L 249.973 492.702 L 442.32 445.38 L 485.527 31.664 L 14.482 31.664 Z M 406.687 419.889 L 249.973 458.458 L 92.55 419.889 L 56.148 64.579 L 443.796 64.579 L 406.687 419.889 Z M 101.795 116.446 L 102.887 129.912 L 117.46 270.385 L 250.036 270.385 L 250.036 270.329 L 322.52 270.329 L 315.201 335.994 L 249.458 351.344 L 249.458 351.454 L 248.945 351.454 L 183.203 336.105 L 179.03 295.541 L 120.606 295.541 L 127.861 375.725 L 248.945 404.54 L 250.036 404.54 L 250.036 404.318 L 370.542 375.669 L 371.633 366.637 L 385.244 232.427 L 387.299 218.961 L 249.458 218.961 L 249.458 219.072 L 171.711 219.072 L 166.446 166.871 L 392.499 166.871 L 393.59 156.067 L 396.673 129.912 L 397.764 116.446 L 249.458 116.446 L 101.795 116.446 Z" style="fill: rgb(140, 140, 140);"/>
</svg>