<?xml version="1.0" encoding="utf-8"?>
<svg viewBox="0 0 500 500" xmlns="http://www.w3.org/2000/svg">
  <g transform="matrix(1, 0, 0, 1, 105.809441, 105.001877)"/>
  <g transform="matrix(1, 0, 0, 1, 105.809441, 105.001877)"/>
  <g transform="matrix(1, 0, 0, 1, 105.809441, 105.001877)"/>
  <g transform="matrix(1, 0, 0, 1, 105.809441, 105.001877)"/>
  <g transform="matrix(1, 0, 0, 1, 105.809441, 105.001877)"/>
  <g transform="matrix(1, 0, 0, 1, 105.809441, 105.001877)"/>
  <g transform="matrix(1, 0, 0, 1, 105.809441, 105.001877)"/>
  <g transform="matrix(1, 0, 0, 1, 105.809441, 105.001877)"/>
  <g transform="matrix(1, 0, 0, 1, 105.809441, 105.001877)"/>
  <g transform="matrix(1, 0, 0, 1, 105.809441, 105.001877)"/>
  <g transform="matrix(1, 0, 0, 1, 105.809441, 105.001877)"/>
  <g transform="matrix(1, 0, 0, 1, 105.809441, 105.001877)"/>
  <g transform="matrix(1, 0, 0, 1, 105.809441, 105.001877)"/>
  <g transform="matrix(1, 0, 0, 1, 105.809441, 105.001877)"/>
  <g transform="matrix(1, 0, 0, 1, 105.809441, 105.001877)"/>
  <path d="M 33.264 0.046 C 15.905 0.046 1.563 14.445 1.563 31.875 L 1.563 469.262 C 1.563 486.691 15.905 501.091 33.264 501.091 L 468.915 501.091 C 486.274 501.091 500.616 486.738 500.616 469.262 L 500.616 31.875 C 500.616 14.445 486.322 0.046 468.915 0.046 L 33.264 0.046 Z M 33.264 23.905 L 468.915 23.905 C 473.323 23.905 476.852 27.449 476.852 31.875 L 476.852 469.262 C 476.852 473.688 473.323 477.23 468.915 477.23 L 33.264 477.23 C 28.856 477.23 25.327 473.688 25.327 469.262 L 25.327 31.875 C 25.327 27.449 28.856 23.905 33.264 23.905 Z M 227.326 226.71 L 227.326 376.713 C 227.326 399.736 218.651 405.653 203.561 405.653 C 187.781 405.653 176.825 395.776 169.59 382.963 L 132.268 405.653 C 143.08 428.63 169.59 453.372 206.353 453.372 C 247.014 453.372 274.855 431.659 274.855 383.988 L 274.855 226.71 L 227.326 226.71 Z M 375.295 226.71 C 334.823 226.71 308.885 252.715 308.885 286.87 C 308.885 323.923 330.653 341.436 363.365 355.418 L 374.7 360.309 C 395.352 369.399 405.558 374.948 405.558 390.55 C 405.558 403.553 395.72 412.966 376.922 412.966 C 354.549 412.966 343.973 397.733 334.265 381.795 L 298.618 405.653 C 311.938 432.078 335.845 453.372 377.944 453.372 C 421.017 453.372 453.087 430.909 453.087 389.953 C 453.087 351.923 431.367 335.007 392.797 318.424 L 381.473 313.568 C 362.022 305.087 353.573 299.587 353.573 285.939 C 353.573 274.894 362.022 266.412 375.295 266.412 C 388.341 266.412 396.694 271.958 404.453 285.939 L 439.767 263.202 C 424.867 236.778 404.121 226.71 375.295 226.71 Z" style="fill: rgb(140, 140, 140);"/>
</svg>