<?xml version="1.0" encoding="utf-8"?>
<svg viewBox="0 0 500 500" xmlns="http://www.w3.org/2000/svg">
  <g transform="matrix(1.026448, 0, 0, 1.093667, 81.610764, 90.828133)" style=""/>
  <g transform="matrix(1.026448, 0, 0, 1.093667, 81.610764, 90.828133)" style=""/>
  <g transform="matrix(1.026448, 0, 0, 1.093667, 81.610764, 90.828133)" style=""/>
  <g transform="matrix(1.026448, 0, 0, 1.093667, 81.610764, 90.828133)" style=""/>
  <g transform="matrix(1.026448, 0, 0, 1.093667, 81.610764, 90.828133)" style=""/>
  <g transform="matrix(1.026448, 0, 0, 1.093667, 81.610764, 90.828133)" style=""/>
  <g transform="matrix(1.026448, 0, 0, 1.093667, 81.610764, 90.828133)" style=""/>
  <g transform="matrix(1.026448, 0, 0, 1.093667, 81.610764, 90.828133)" style=""/>
  <g transform="matrix(1.026448, 0, 0, 1.093667, 81.610764, 90.828133)" style=""/>
  <g transform="matrix(1.026448, 0, 0, 1.093667, 81.610764, 90.828133)" style=""/>
  <g transform="matrix(1.026448, 0, 0, 1.093667, 81.610764, 90.828133)" style=""/>
  <g transform="matrix(1.026448, 0, 0, 1.093667, 81.610764, 90.828133)" style=""/>
  <g transform="matrix(1.026448, 0, 0, 1.093667, 81.610764, 90.828133)" style=""/>
  <g transform="matrix(1.026448, 0, 0, 1.093667, 81.610764, 90.828133)" style=""/>
  <g transform="matrix(1.026448, 0, 0, 1.093667, 81.610764, 90.828133)" style=""/>
  <g transform="matrix(1.026448, 0, 0, 1.093667, 89.030251, 132.890961)" style=""/>
  <g transform="matrix(1.026448, 0, 0, 1.093667, 89.030251, 132.890961)" style=""/>
  <g transform="matrix(1.026448, 0, 0, 1.093667, 89.030251, 132.890961)" style=""/>
  <g transform="matrix(1.026448, 0, 0, 1.093667, 89.030251, 132.890961)" style=""/>
  <g transform="matrix(1.026448, 0, 0, 1.093667, 89.030251, 132.890961)" style=""/>
  <g transform="matrix(1.026448, 0, 0, 1.093667, 89.030251, 132.890961)" style=""/>
  <g transform="matrix(1.026448, 0, 0, 1.093667, 89.030251, 132.890961)" style=""/>
  <g transform="matrix(1.026448, 0, 0, 1.093667, 89.030251, 132.890961)" style=""/>
  <g transform="matrix(1.026448, 0, 0, 1.093667, 89.030251, 132.890961)" style=""/>
  <g transform="matrix(1.026448, 0, 0, 1.093667, 89.030251, 132.890961)" style=""/>
  <g transform="matrix(1.026448, 0, 0, 1.093667, 89.030251, 132.890961)" style=""/>
  <g transform="matrix(1.026448, 0, 0, 1.093667, 89.030251, 132.890961)" style=""/>
  <g transform="matrix(1.026448, 0, 0, 1.093667, 89.030251, 132.890961)" style=""/>
  <g transform="matrix(1.026448, 0, 0, 1.093667, 89.030251, 132.890961)" style=""/>
  <g transform="matrix(1.026448, 0, 0, 1.093667, 89.030251, 132.890961)" style=""/>
  <g transform="matrix(0.989019, 0, 0, 0.961695, -0.936528, 2.798963)" style=""/>
  <g transform="matrix(0.989019, 0, 0, 0.961695, -0.936528, 2.798963)" style=""/>
  <g transform="matrix(0.989019, 0, 0, 0.961695, -0.936528, 2.798963)" style=""/>
  <g transform="matrix(0.989019, 0, 0, 0.961695, -0.936528, 2.798963)" style=""/>
  <g transform="matrix(0.989019, 0, 0, 0.961695, -0.936528, 2.798963)" style=""/>
  <g transform="matrix(0.989019, 0, 0, 0.961695, -0.936528, 2.798963)" style=""/>
  <g transform="matrix(0.989019, 0, 0, 0.961695, -0.936528, 2.798963)" style=""/>
  <g transform="matrix(0.989019, 0, 0, 0.961695, -0.936528, 2.798963)" style=""/>
  <g transform="matrix(0.989019, 0, 0, 0.961695, -0.936528, 2.798963)" style=""/>
  <g transform="matrix(0.989019, 0, 0, 0.961695, -0.936528, 2.798963)" style=""/>
  <g transform="matrix(0.989019, 0, 0, 0.961695, -0.936528, 2.798963)" style=""/>
  <g transform="matrix(0.989019, 0, 0, 0.961695, -0.936528, 2.798963)" style=""/>
  <g transform="matrix(0.989019, 0, 0, 0.961695, -0.936528, 2.798963)" style=""/>
  <g transform="matrix(0.989019, 0, 0, 0.961695, -0.936528, 2.798963)" style=""/>
  <g transform="matrix(0.989019, 0, 0, 0.961695, -0.936528, 2.798963)" style=""/>
  <path d="M 24.859 155.706 L 479.42 155.706 L 479.42 407.929 L 252.139 407.929 L 252.139 449.974 L 151.135 449.974 L 151.135 407.929 L 24.859 407.929 L 24.859 155.706 Z M 50.11 365.888 L 100.612 365.888 L 100.612 239.795 L 125.863 239.795 L 125.863 365.888 L 151.135 365.888 L 151.135 197.749 L 50.087 197.749 L 50.087 365.888 L 50.11 365.888 Z M 176.387 197.749 L 176.387 407.929 L 226.888 407.929 L 226.888 365.888 L 277.391 365.888 L 277.391 197.749 L 176.387 197.749 Z M 302.642 197.749 L 302.642 365.888 L 353.144 365.888 L 353.144 239.795 L 378.417 239.795 L 378.417 365.888 L 403.647 365.888 L 403.647 239.795 L 428.918 239.795 L 428.918 365.888 L 454.145 365.888 L 454.145 197.749 L 302.642 197.749 Z" style="fill: rgb(140, 140, 140);"/>
  <path d="M 252.139 328.588 L 229.411 328.588 L 229.411 236.631 L 252.139 236.631 L 252.139 328.588 Z" style="fill: rgb(140, 140, 140);"/>
</svg>