<?xml version="1.0" encoding="utf-8"?>
<svg viewBox="0 0 500 500" xmlns="http://www.w3.org/2000/svg">
  <g transform="matrix(1, 0, 0, 1, 105.809441, 105.001877)"/>
  <g transform="matrix(1, 0, 0, 1, 105.809441, 105.001877)"/>
  <g transform="matrix(1, 0, 0, 1, 105.809441, 105.001877)"/>
  <g transform="matrix(1, 0, 0, 1, 105.809441, 105.001877)"/>
  <g transform="matrix(1, 0, 0, 1, 105.809441, 105.001877)"/>
  <g transform="matrix(1, 0, 0, 1, 105.809441, 105.001877)"/>
  <g transform="matrix(1, 0, 0, 1, 105.809441, 105.001877)"/>
  <g transform="matrix(1, 0, 0, 1, 105.809441, 105.001877)"/>
  <g transform="matrix(1, 0, 0, 1, 105.809441, 105.001877)"/>
  <g transform="matrix(1, 0, 0, 1, 105.809441, 105.001877)"/>
  <g transform="matrix(1, 0, 0, 1, 105.809441, 105.001877)"/>
  <g transform="matrix(1, 0, 0, 1, 105.809441, 105.001877)"/>
  <g transform="matrix(1, 0, 0, 1, 105.809441, 105.001877)"/>
  <g transform="matrix(1, 0, 0, 1, 105.809441, 105.001877)"/>
  <g transform="matrix(1, 0, 0, 1, 105.809441, 105.001877)"/>
  <g transform="matrix(1, 0, 0, 1, 113.037758, 143.46225)"/>
  <g transform="matrix(1, 0, 0, 1, 113.037758, 143.46225)"/>
  <g transform="matrix(1, 0, 0, 1, 113.037758, 143.46225)"/>
  <g transform="matrix(1, 0, 0, 1, 113.037758, 143.46225)"/>
  <g transform="matrix(1, 0, 0, 1, 113.037758, 143.46225)"/>
  <g transform="matrix(1, 0, 0, 1, 113.037758, 143.46225)"/>
  <g transform="matrix(1, 0, 0, 1, 113.037758, 143.46225)"/>
  <g transform="matrix(1, 0, 0, 1, 113.037758, 143.46225)"/>
  <g transform="matrix(1, 0, 0, 1, 113.037758, 143.46225)"/>
  <g transform="matrix(1, 0, 0, 1, 113.037758, 143.46225)"/>
  <g transform="matrix(1, 0, 0, 1, 113.037758, 143.46225)"/>
  <g transform="matrix(1, 0, 0, 1, 113.037758, 143.46225)"/>
  <g transform="matrix(1, 0, 0, 1, 113.037758, 143.46225)"/>
  <g transform="matrix(1, 0, 0, 1, 113.037758, 143.46225)"/>
  <g transform="matrix(1, 0, 0, 1, 113.037758, 143.46225)"/>
  <path d="M 168.546 41.109 C 156.001 41.109 144.36 43.953 134.054 50.002 C 101.84 68.956 89.584 115.15 96.072 172.647 C 43.984 195.66 10.867 229.554 10.867 267.444 C 10.867 305.333 43.984 339.227 96.072 362.241 C 89.584 419.734 101.84 465.932 134.054 484.886 C 144.34 490.931 155.98 493.78 168.546 493.78 C 195.276 493.78 226.197 480.116 257.24 456.641 C 288.284 480.116 319.243 493.78 345.974 493.78 C 358.518 493.78 370.161 490.931 380.467 484.886 C 412.679 465.932 424.936 419.734 418.45 362.241 C 470.517 339.227 503.612 305.333 503.612 267.444 C 503.612 229.554 470.495 195.66 418.407 172.647 C 424.895 115.15 412.639 68.956 380.427 50.002 C 370.139 43.933 358.499 41.109 345.934 41.109 C 319.203 41.109 288.284 54.77 257.24 78.244 C 226.197 54.77 195.276 41.109 168.546 41.109 Z M 168.546 77.722 C 184.581 77.722 205.808 86.404 228.846 102.514 C 215.294 115.55 202.031 130.361 189.261 146.849 C 168.567 149.884 149.043 154.296 130.974 159.799 C 130.871 158.523 130.645 157.184 130.565 155.929 C 128.367 118.686 136.394 90.926 152.018 81.717 C 156.636 78.998 162.039 77.722 168.546 77.722 Z M 345.934 77.722 C 352.423 77.722 357.84 78.998 362.461 81.717 C 378.086 90.902 386.112 118.686 383.915 155.929 C 383.834 157.184 345.893 149.884 325.177 146.849 C 312.408 130.361 299.184 115.55 285.633 102.514 C 308.668 86.404 329.899 77.722 345.934 77.722 Z M 257.24 125.781 C 262.802 130.926 268.325 136.388 273.931 142.35 C 268.387 142.161 262.865 141.91 257.24 141.91 C 251.614 141.91 246.132 142.161 240.588 142.35 C 246.173 136.388 251.677 130.926 257.24 125.781 Z M 257.24 178.526 C 274.26 178.526 290.376 179.487 305.672 181.181 C 315.015 194.11 324.211 207.775 332.833 222.984 C 341.089 237.566 348.398 252.483 354.843 267.444 C 348.398 282.402 341.089 297.362 332.833 311.944 C 324.233 327.114 315.055 340.692 305.755 353.579 C 289.924 355.356 273.665 356.363 257.24 356.363 C 240.219 356.363 224.103 355.4 208.807 353.706 C 199.466 340.774 190.268 327.154 181.643 311.944 C 173.39 297.362 166.081 282.402 159.636 267.444 C 166.081 252.483 173.39 237.566 181.643 222.984 C 190.246 207.814 199.424 194.194 208.724 181.307 C 224.555 179.529 240.814 178.526 257.24 178.526 Z M 354.68 189.844 C 362.83 191.851 370.653 194.008 378.024 196.413 C 376.362 204.112 374.306 211.937 372.009 219.845 C 369.359 214.783 366.793 209.719 363.938 204.678 C 361.003 199.488 357.738 194.844 354.68 189.844 Z M 159.759 189.887 C 156.698 194.865 153.453 199.51 150.541 204.678 C 147.686 209.719 145.12 214.783 142.47 219.845 C 140.17 211.916 138.1 204.07 136.415 196.393 C 143.907 193.965 151.73 191.831 159.759 189.887 Z M 102.62 209.825 C 106.933 228.444 112.948 247.735 120.668 267.401 C 112.968 287.027 106.973 306.275 102.663 324.854 C 66.896 307.259 46.796 285.353 46.796 267.444 C 46.796 249.054 66.342 228.089 99.09 211.414 C 100.198 210.848 101.471 210.39 102.62 209.825 Z M 411.816 210.034 C 447.584 227.628 467.681 249.534 467.681 267.444 C 467.681 285.834 448.138 306.798 415.389 323.471 C 414.281 324.036 413.008 324.498 411.859 325.063 C 407.526 306.441 401.594 287.131 393.852 267.444 C 401.551 247.839 407.506 228.592 411.816 210.034 Z M 257.24 225.6 C 234.552 225.6 216.179 244.325 216.179 267.444 C 216.179 290.563 234.552 309.288 257.24 309.288 C 279.925 309.288 298.301 290.563 298.301 267.444 C 298.301 244.325 279.925 225.6 257.24 225.6 Z M 142.47 315.041 C 145.12 320.106 147.727 325.166 150.581 330.211 C 153.516 335.398 156.741 340.065 159.801 345.044 C 151.649 343.036 143.826 340.881 136.455 338.476 C 138.118 330.776 140.17 322.97 142.47 315.041 Z M 372.009 315.083 C 374.306 323.012 376.402 330.815 378.064 338.495 C 370.569 340.921 362.749 343.055 354.72 345.002 C 357.781 340.024 361.023 335.379 363.938 330.211 C 366.793 325.189 369.359 320.125 372.009 315.083 Z M 130.974 375.088 C 149.061 380.59 168.586 385.004 189.302 388.039 C 202.071 404.525 215.294 419.379 228.846 432.415 C 205.808 448.502 184.581 457.206 168.546 457.206 C 162.056 457.206 156.636 455.891 152.018 453.168 C 136.394 443.984 128.367 416.242 130.565 379.001 C 130.645 377.724 130.871 376.364 130.974 375.088 Z M 383.507 375.088 C 383.608 376.364 383.834 377.724 383.915 379.001 C 386.112 416.242 378.086 443.963 362.461 453.168 C 357.84 455.891 352.44 457.206 345.934 457.206 C 329.899 457.206 308.668 448.525 285.633 432.415 C 299.184 419.379 312.448 404.525 325.218 388.039 C 345.912 385.004 365.438 380.59 383.507 375.088 Z M 240.569 392.536 C 246.092 392.726 251.614 392.978 257.24 392.978 C 262.865 392.978 268.387 392.726 273.931 392.536 C 268.325 398.5 262.802 403.959 257.24 409.108 C 251.677 403.959 246.154 398.5 240.569 392.536 Z" style="fill: rgb(140, 140, 140);"/>
</svg>