<?xml version="1.0" encoding="utf-8"?>
<svg viewBox="0 0 500 500" xmlns="http://www.w3.org/2000/svg">
  <g transform="matrix(1.026448, 0, 0, 1.093667, 81.610764, 90.828133)" style=""/>
  <g transform="matrix(1.026448, 0, 0, 1.093667, 81.610764, 90.828133)" style=""/>
  <g transform="matrix(1.026448, 0, 0, 1.093667, 81.610764, 90.828133)" style=""/>
  <g transform="matrix(1.026448, 0, 0, 1.093667, 81.610764, 90.828133)" style=""/>
  <g transform="matrix(1.026448, 0, 0, 1.093667, 81.610764, 90.828133)" style=""/>
  <g transform="matrix(1.026448, 0, 0, 1.093667, 81.610764, 90.828133)" style=""/>
  <g transform="matrix(1.026448, 0, 0, 1.093667, 81.610764, 90.828133)" style=""/>
  <g transform="matrix(1.026448, 0, 0, 1.093667, 81.610764, 90.828133)" style=""/>
  <g transform="matrix(1.026448, 0, 0, 1.093667, 81.610764, 90.828133)" style=""/>
  <g transform="matrix(1.026448, 0, 0, 1.093667, 81.610764, 90.828133)" style=""/>
  <g transform="matrix(1.026448, 0, 0, 1.093667, 81.610764, 90.828133)" style=""/>
  <g transform="matrix(1.026448, 0, 0, 1.093667, 81.610764, 90.828133)" style=""/>
  <g transform="matrix(1.026448, 0, 0, 1.093667, 81.610764, 90.828133)" style=""/>
  <g transform="matrix(1.026448, 0, 0, 1.093667, 81.610764, 90.828133)" style=""/>
  <g transform="matrix(1.026448, 0, 0, 1.093667, 81.610764, 90.828133)" style=""/>
  <g transform="matrix(1.026448, 0, 0, 1.093667, 89.030251, 132.890961)" style=""/>
  <g transform="matrix(1.026448, 0, 0, 1.093667, 89.030251, 132.890961)" style=""/>
  <g transform="matrix(1.026448, 0, 0, 1.093667, 89.030251, 132.890961)" style=""/>
  <g transform="matrix(1.026448, 0, 0, 1.093667, 89.030251, 132.890961)" style=""/>
  <g transform="matrix(1.026448, 0, 0, 1.093667, 89.030251, 132.890961)" style=""/>
  <g transform="matrix(1.026448, 0, 0, 1.093667, 89.030251, 132.890961)" style=""/>
  <g transform="matrix(1.026448, 0, 0, 1.093667, 89.030251, 132.890961)" style=""/>
  <g transform="matrix(1.026448, 0, 0, 1.093667, 89.030251, 132.890961)" style=""/>
  <g transform="matrix(1.026448, 0, 0, 1.093667, 89.030251, 132.890961)" style=""/>
  <g transform="matrix(1.026448, 0, 0, 1.093667, 89.030251, 132.890961)" style=""/>
  <g transform="matrix(1.026448, 0, 0, 1.093667, 89.030251, 132.890961)" style=""/>
  <g transform="matrix(1.026448, 0, 0, 1.093667, 89.030251, 132.890961)" style=""/>
  <g transform="matrix(1.026448, 0, 0, 1.093667, 89.030251, 132.890961)" style=""/>
  <g transform="matrix(1.026448, 0, 0, 1.093667, 89.030251, 132.890961)" style=""/>
  <g transform="matrix(1.026448, 0, 0, 1.093667, 89.030251, 132.890961)" style=""/>
  <path d="M 13.683 227.611 C 13.683 227.611 2.617 220.483 15.896 210.957 L 46.807 186.233 C 46.807 186.233 55.661 177.914 65.005 185.161 L 350.314 378.366 L 350.314 471 C 350.314 471 350.163 485.546 329.297 483.939 L 13.683 227.611 Z" style="fill: rgb(140, 140, 140);"/>
  <path d="M 87.214 287.338 L 13.683 347.13 C 13.683 347.13 6.136 352.153 13.683 361.141 L 47.828 388.911 C 47.828 388.911 55.925 396.696 67.918 387.84 L 145.876 334.977 L 87.214 287.338 Z" style="fill: rgb(140, 140, 140);"/>
  <path d="M 216.323 287.824 L 351.184 195.706 L 350.294 103.557 C 350.294 103.557 344.544 83.453 325.324 93.916 L 145.876 240.016 L 216.323 287.824 Z" style="fill: rgb(140, 140, 140);"/>
  <path d="M 329.297 484.073 C 337.128 491.237 346.626 488.895 346.626 488.895 L 451.709 442.577 C 465.178 434.375 463.287 424.197 463.287 424.197 L 463.287 147.582 C 463.287 135.428 449.364 131.21 449.364 131.21 L 358.277 91.941 C 338.377 80.944 325.324 93.916 325.324 93.916 C 325.324 93.916 342.104 83.12 350.294 103.557 L 350.294 469.309 C 350.294 471.837 349.709 474.297 348.497 476.523 C 346.115 480.861 340.911 484.894 328.407 483.204 L 329.297 484.073 Z" style="fill: rgb(140, 140, 140);"/>
</svg>